<?xml version="1.0" encoding="UTF-8"?>
<svg width="245" height="565" xmlns="http://www.w3.org/2000/svg" xmlns:svg="http://www.w3.org/2000/svg" xmlns:xlink="http://www.w3.org/1999/xlink">
 <!-- Created with SVG-edit - http://svg-edit.googlecode.com/ -->
 <title>Homestar</title>
 <defs>
  <symbol id="svg_29" xmlns:xlink="http://www.w3.org/1999/xlink" xmlns="http://www.w3.org/2000/svg">

   <g transform="matrix(1, 0, 0, 1, 4.45, 5.0)">
    <path fill="#000000" d="m-3.4,-1.1q-0.5,0 -0.45,1q-0.05,1.05 0.45,1.05q0.45,0 0.5,-1.05q-0.05,-1 -0.5,-1m-0.65,-2.45q0.45,-1.45 1.1,-1.45q0.65,0 1.1,1.45q0.45,1.45 0.45,3.5q0,2.05 -0.45,3.5q-0.45,1.45 -1.1,1.45l-0.35,-0.1l-0.7,-0.95q-0.4,-0.95 -0.45,-2.35l0,-0.7l0,-0.05q0.15,-3.8 2,-2.05q-0.25,-3.6 -1.7,-1.85l0.1,-0.4"/>
    <path fill="#ffffff" d="m-3.4,-1.1q0.45,0 0.5,1q-0.05,1.05 -0.5,1.05q-0.5,0 -0.45,-1.05q-0.05,-1 0.45,-1"/>
    <path fill="#000000" d="m2.95,-0.1q-0.05,-1 -0.5,-1q-0.5,0 -0.45,1q-0.05,1.05 0.45,1.05q0.45,0 0.5,-1.05m1.05,-3.45q0.45,1.45 0.45,3.5q0,2.05 -0.45,3.5q-0.45,1.45 -1.1,1.45l-0.35,-0.1q-0.4,-0.2 -0.7,-0.95q-0.4,-0.95 -0.45,-2.35l0,-0.7l0,-0.05q0.15,-3.8 2,-2.05q-0.25,-3.6 -1.7,-1.85l0.1,-0.4q0.45,-1.45 1.1,-1.45q0.65,0 1.1,1.45"/>
    <path fill="#ffffff" d="m2.95,-0.1q-0.05,1.05 -0.5,1.05q-0.5,0 -0.45,-1.05q-0.05,-1 0.45,-1q0.45,0 0.5,1"/>
   </g>
  </symbol>
 </defs>
 <g>
  <title>Layer 1</title>

  <g transform="rotate(3.36663, 65.2402, 441.182)" id="svg_62">
   <path id="svg_48" fill="#eeeeee" d="m105.330261,322.292419l5.294769,-0.112854l0.360992,-0.112854l0,0.112854l0.481354,10.382355l1.083008,22.457428l4.933716,106.306122l0,2.595581l-0.1203,-1.805634l0,1.805634l0.240662,3.046997l0.240692,4.288361l3.008362,54.281616l0,0.112854l0.1203,-0.112854l0,0.112854l-5.174408,3.046997q-4.21167,2.369873 -12.875824,5.304016l1.564362,-3.836975l2.888062,-26.294373l2.76767,-33.516907l0.240692,-3.38559l0.360962,-4.401215l0.240692,-1.805603q0.361023,-21.103241 -0.481293,-42.093628l-3.249115,-60.149841l-0.240601,-3.498413l-1.684753,-32.726929"/>
   <path id="svg_49" fill="#cccccc" d="m119.973999,525.538025l-0.106995,0.112854l0,-0.112854l0.106995,0m-3.210052,-61.616974l0,-1.805634l0.106995,1.805634l-0.106995,0"/>
   <path id="svg_50" fill="#ffffff" d="m106.584351,320.967865l1.581696,32.922699l0.225952,3.519348l3.050415,60.509674q0.790802,21.115967 0.451904,42.345459l-0.225952,1.816406l-0.338928,4.427521l-0.225983,3.405823l-2.59848,33.717468l-2.711456,26.45166l-1.468719,3.859924l-10.619934,3.405762q-16.494812,4.995178 -31.859863,6.357483l-29.148315,-1.021729q-14.348221,-2.384094 -21.465836,-7.833374q0,-0.113525 -1.468704,-0.681091l0.903809,0.340515l-1.355743,-1.248718l-0.790833,-0.681213q12.088654,-51.313965 79.649506,-64.256073l8.721771,-148.833405l9.693695,1.475861m14.687164,204.461456l0.112946,-0.227051l0.113007,0.227051l-0.225952,0m0.338928,-0.113525l0.338928,-0.227051l-0.225952,0.227051l-0.225952,0.113525l0.112976,-0.113525m-0.225983,0.340576l-0.112946,0l0.112946,-0.113525l0,0.113525"/>
   <path id="svg_51" fill="#252570" d="m103.923706,534.001892q7.704132,-2.934143 11.449188,-5.304016l4.601105,-3.046997l0,-0.112854l0.213989,0l0.107025,-0.112854l-0.107025,0.112854l0.21402,-0.112854l2.354034,-0.902832l1.391022,25.504456q-36.380676,15.347778 -66.662231,15.12207q-30.388565,-0.225708 -51.146942,-14.332153q-0.10701,-11.623657 2.568039,-22.118835l2.35405,2.482727l1.926041,1.467041l0.749008,0.677124l1.284027,1.241333l-0.856018,-0.338501q1.391022,0.564209 1.391022,0.677063q6.741135,5.41687 20.330383,7.786743l27.606491,1.015686q14.552292,-1.354187 30.174576,-6.319702l10.058197,-3.385498m16.157288,-8.238159l0,-0.112854l-0.106995,0.112854l0.106995,0m-14.338257,10.720886q-54.999023,22.570313 -92.556717,-0.56427l-2.033051,12.075073q41.409775,21.780396 94.482742,2.821289l0.107025,-14.332092"/>
   <path id="svg_52" fill="#333399" d="m106.409454,534.889282l-0.10968,16.144958q-54.382141,21.357117 -96.813431,-3.178223l2.083206,-13.602356q38.484161,26.060791 94.839905,0.63562"/>
   <path id="svg_53" fill="#999999" d="m116.870941,463.921051l0,-2.595581l-4.387085,-106.306122l-0.963013,-22.457428l-0.428009,-10.382355l0,-0.112854l-0.321014,0.112854l-4.708099,0.112854l-7.918121,-1.467072l-9.523193,147.948334q-63.987167,12.865112 -75.436386,63.873962l-1.926041,-1.467041l-2.35405,-2.482727l2.46106,-7.561096l3.103058,-7.222473l6.955124,-11.285156l1.819031,-2.369873q16.799316,-21.328918 47.936874,-30.131348l0.535019,-0.225739l9.844177,-2.595581l1.391022,-0.338562l1.926056,-0.338562l0.213989,0.789978l0.106995,-0.451416l5.136108,-80.801666l4.387085,-68.952271q8.025146,3.836945 18.404327,3.949799l9.630188,202.117096l0.21402,1.241333l-0.21402,0l-2.354034,0.902832l0.213989,-0.225708l-0.320984,0.225708l-0.107025,0.112854l-0.106995,-0.225708l-0.106995,0.225708l-0.106995,0l-2.675049,-54.281616l-0.21402,-4.288361l-0.213989,-3.046997l0.106995,0"/>
  </g>
  <g transform="rotate(0.0239889, 180.992, 441.882)" id="svg_63">
   <g id="svg_70">
    <path transform="rotate(-2.84381, 124.164, 430.571)" id="svg_64" fill="#eeeeee" d="m131.364624,324.829956l-5.761047,-0.112854l-0.392761,-0.112854l0,0.112854l-0.523743,10.382355l-1.178406,22.457428l-5.368195,106.306122l0,2.595581l0.13089,-1.805634l0,1.805634l-0.261841,3.046967l-0.261902,4.288452l-3.273285,54.281677l0,0.112854l-0.13089,-0.112854l0,0.112854l5.630096,3.046997q4.58255,2.369873 14.009705,5.304016l-1.702118,-3.836975l-3.142395,-26.294373l-3.011414,-33.517029l-0.261871,-3.38562l-0.392761,-4.401184l-0.261871,-1.805603q-0.392822,-21.103241 0.523651,-42.093628l3.535248,-60.149841l0.26181,-3.498413l1.833099,-32.726929"/>
    <path transform="rotate(-2.84381, 120.454, 496.688)" id="svg_65" fill="#cccccc" d="m118.707031,528.341187l0.116425,0.112854l0,-0.112854l-0.116425,0m3.492737,-61.617065l0,-1.805634l-0.116394,1.805634l0.116394,0"/>
    <path transform="rotate(-2.84381, 175.105, 431.611)" id="svg_66" fill="#ffffff" d="m130.114441,320.97934l-1.720978,32.922699l-0.24585,3.519348l-3.319031,60.509674q-0.860443,21.115967 -0.491699,42.345459l0.24585,1.816406l0.368774,4.427521l0.24588,3.405853l2.827301,33.71756l2.950256,26.45166l1.598053,3.859924l11.555145,3.405762q17.947418,4.995178 34.665588,6.357483l31.71524,-1.021729q15.611755,-2.384094 23.356171,-7.833374q0,-0.113525 1.598053,-0.681091l-0.983398,0.340515l1.475128,-1.248718l0.860474,-0.681213q-13.153229,-51.314026 -86.663757,-64.256226l-9.489838,-148.833374l-10.547363,1.475861m-15.98056,204.461578l-0.122894,-0.227051l-0.122955,0.227051l0.24585,0m-0.368774,-0.113525l-0.368774,-0.227051l0.24585,0.227051l0.24585,0.113525l-0.122925,-0.113525m0.24588,0.340576l0.122894,0l-0.122894,-0.113525l0,0.113525"/>
    <path transform="rotate(-2.84381, 180.717, 544.71)" id="svg_67" fill="#252570" d="m138.627563,533.874329q-8.382568,-2.934143 -12.457428,-5.304016l-5.006317,-3.046997l0,-0.112854l-0.232819,0l-0.116455,-0.112854l0.116455,0.112854l-0.23288,-0.112854l-2.56134,-0.902832l-1.513519,25.504456q39.584503,15.347778 72.532776,15.12207q33.064697,-0.225708 55.651123,-14.332153q0.116455,-11.623657 -2.794189,-22.118835l-2.56134,2.482727l-2.095673,1.467041l-0.814941,0.677124l-1.397125,1.241333l0.931396,-0.338501q-1.513519,0.564209 -1.513519,0.677063q-7.334778,5.41687 -22.120728,7.786743l-30.037628,1.015686q-15.833832,-1.354187 -32.831879,-6.319702l-10.94397,-3.385498m-17.580139,-8.238159l0,-0.112854l0.116394,0.112854l-0.116394,0m15.600922,10.720886q59.842468,22.570313 100.707611,-0.56427l2.212097,12.075073q-45.056458,21.780396 -102.803253,2.821289l-0.116455,-14.332092"/>
    <path transform="rotate(-2.84381, 188.78, 547.089)" id="svg_68" fill="#333399" d="m136.050812,534.364563l0.119354,16.144958q59.171234,21.357117 105.339172,-3.178223l-2.266632,-13.602356q-41.87323,26.060791 -103.191895,0.63562"/>
    <path transform="rotate(-2.84381, 174.011, 424.989)" id="svg_69" fill="#999999" d="m118.592102,463.978638l0,-2.595581l4.773407,-106.306122l1.047821,-22.457428l0.465698,-10.382355l0,-0.112854l0.349304,0.112854l5.122711,0.112854l8.615417,-1.467072l10.361847,147.948364q69.622131,12.865112 82.07959,63.874023l2.095673,-1.467041l2.56134,-2.482727l-2.677765,-7.561096l-3.376343,-7.222473l-7.567627,-11.285156l-1.979218,-2.369873q-18.278717,-21.328979 -52.158356,-30.13147l-0.582153,-0.225708l-10.71109,-2.595612l-1.513519,-0.338562l-2.095673,-0.338562l-0.232849,0.789978l-0.116425,-0.451416l-5.588409,-80.801636l-4.773407,-68.952271q-8.731873,3.836945 -20.025085,3.949799l-10.478271,202.117188l-0.232849,1.241333l0.232849,0l2.56134,0.902832l-0.232819,-0.225708l0.349243,0.225708l0.116455,0.112854l0.116425,-0.225708l0.116394,0.225708l0.116425,0l2.910614,-54.281677l0.23288,-4.288422l0.232819,-3.046967l-0.116394,0"/>
   </g>
  </g>

  <g id="svg_28">
   <path id="svg_17" fill="#1d1d58" d="m95.942474,27.896309l3.074371,-1.530876l6.795898,-3.401962q5.825073,-2.891663 12.621002,-3.912243l11.002899,-0.680393l7.281342,1.360786l6.634125,2.381363l7.604919,3.912247l6.310486,4.252441l2.103516,1.700981l2.912537,2.891655l1.941681,1.871078l0.161835,0.170097q21.68219,21.772507 18.122437,65.487625l0,2.891647l-2.750732,-4.762726l-1.456268,-1.700974l-0.647247,-0.850494l0,-0.170105l-0.161774,0l-0.161835,-0.340195l-3.07431,-4.422531l-13.430023,-14.288216l-2.912567,-2.721558l-1.132629,-0.850494l-9.061218,-7.994591l-5.016052,-4.252441q-18.607849,-15.308792 -34.303192,-26.024948l-9.223022,-6.123512l-1.618073,-1.360786l-1.779877,-1.360779l0.161774,-0.170097m48.865875,0.340202q-6.795929,-3.912262 -14.239075,-5.102936q-14.562622,-2.211277 -27.507233,6.29361q28.801697,19.221039 47.733185,35.72052q14.724518,12.927422 23.462128,24.323975l3.236145,4.422531q-0.161835,-15.819084 -3.074371,-29.426903q-2.912537,-13.437714 -12.459167,-23.643578q-9.546661,-10.205864 -17.151611,-12.587219"/>
   <path id="svg_18" fill="#333399" d="m146.097321,28.129608l1.379089,4.404755q4.482025,15.600204 4.826782,31.93454l0.172394,3.487099q-20.169159,-17.802582 -50.853912,-38.541679q13.790894,-9.176586 29.305664,-6.790672q7.929749,1.284721 15.169983,5.505959"/>
   <path id="svg_19" fill="#252570" d="m150.774994,66.63163l-0.167755,-3.459702q-0.33548,-16.205933 -4.696991,-31.68351l-1.34198,-4.370132q7.884216,2.54924 17.781464,13.474594q9.897186,10.925331 12.916687,25.310387q3.019501,14.567131 3.187256,31.501411l-3.35495,-4.734314q-9.058472,-12.199966 -24.32373,-26.038734"/>
   <path id="svg_20" fill="#999999" d="m96.740936,28.066406l1.779877,1.360779l1.618073,1.360786q-14.239075,7.144104 -27.021851,27.555824l-1.618088,2.551468l-0.323624,0.340195q-7.281326,12.076935 -10.679291,21.092117l-0.809036,2.041168l-8.252182,0l0.809052,-2.041168q4.530594,-9.865677 12.135559,-21.432312l2.265289,-3.572052l2.427109,-3.401962l-0.161804,0.170105l0.161804,-0.170105l0.809052,-1.360779q0.485428,-0.680389 0,0.170097l2.588943,-3.23185l2.912506,-3.06176l5.986847,-6.12352q4.53064,-4.762733 9.384857,-8.164688l2.26532,-1.530884l3.559753,-2.55146l0.161835,0m81.874603,69.910156l0.647217,0.850494l1.456238,1.700974l2.750732,4.762726l0,-2.891647l0,3.231842l-0.809021,9.015182l-1.618073,14.628403l-2.588928,22.963181l-2.912537,23.133286l0.161804,0.510315l-53.396484,-2.211288l0,-3.401947l1.779907,0.170105l15.2099,1.190674l9.384857,0.680389l1.294434,0l3.397919,0.340195l16.019012,1.190689l0.161743,0q3.559814,-14.458298 6.148712,-36.570999q2.750732,-22.623001 2.912567,-39.292572m-13.430054,-61.235176l-1.941711,-1.871078l-2.912537,-2.891655l6.472321,-5.783325l-28.15451,-11.226448l1.456299,-3.231853l4.854218,-5.102928q5.986877,-5.44313 14.562653,-6.633816l12.459167,22.963188l31.714294,12.076942q-3.236145,14.2882 -21.034973,20.071526l-10.517487,-20.581825l0,0.170105l-0.809052,-1.700981l-2.588898,-5.273026l-3.559784,9.015175m-21.035004,-22.112698l24.918365,9.355373l-10.841064,-19.561237q-10.841125,1.871075 -14.077301,10.205864m55.338196,21.262211l-27.345459,-9.695572l12.297333,24.153877q12.782837,-5.102936 15.048126,-14.458305"/>
   <path id="svg_21" fill="#ffffff" d="m100.138885,30.787971l9.223022,6.123512q15.695343,10.716156 34.303162,26.024948l5.016083,4.252441q2.265289,8.164696 2.265289,16.669579l0,15.989189q0.161774,8.674973 -0.809052,15.308777l-1.294464,13.607819l-2.588898,16.669586l-1.456299,8.334778q-1.456238,9.355377 -5.501434,17.86026l-15.2099,-1.190674l-1.779907,-0.170105l0,-85.899338l-62.619492,0l0.809036,-2.041168q3.397964,-9.015182 10.679291,-21.092117l0.323624,-0.340195l1.618088,-2.551468q12.782776,-20.41172 27.021851,-27.555824m44.011597,-16.159283q3.236176,-8.334789 14.077301,-10.205864l10.841064,19.561237l-24.918365,-9.355373m55.338196,21.262211q-2.265289,9.35537 -15.048126,14.458305l-12.297333,-24.153877l27.345459,9.695572"/>
   <path id="svg_22" fill="#bb002b" d="m96.90271,27.896309l-0.161774,0.170097l-0.161835,0l-3.559753,2.55146l-5.177856,-2.891655q-23.623886,-12.587231 -28.801727,-4.082344q-5.339645,8.504883 10.84111,28.916603l-0.809052,1.360779l-0.161804,0.170105l0.161804,-0.170105l-2.427109,3.401962q-20.711349,-30.1073 -10.193878,-38.271984q9.061234,-7.144104 33.979614,4.932835l6.47226,3.912247m-5.33963,-3.231865l-0.809052,-0.510284l0.647247,0.340195l0.161804,0.17009"/>
   <path id="svg_23" fill="#d90000" d="m93.739441,30.365036l-2.357727,1.596992q-5.052246,3.548866 -9.7677,8.517273l-6.231079,6.38797l-3.031372,3.193985l-2.69455,3.371414q0.505234,-0.887215 0,-0.177444q-16.840866,-21.293198 -11.283401,-30.165367q5.389084,-8.872169 29.976761,4.258636l5.389069,3.016541"/>
   <path id="svg_24" fill="#ebebeb" d="m148.007416,67.188873l9.337799,8.012131l1.167236,0.852364l3.001434,2.727531l13.840027,14.319565l3.168152,4.432251l0.166748,0.340942l0.166779,0l0,0.170456q-0.166779,16.706161 -3.001495,39.378799q-2.667908,22.161224 -6.336395,36.651245l-0.166718,0l-16.507935,-1.193283l-3.501678,-0.340958l-1.333954,0l-9.671326,-0.681885q4.168701,-8.523529 5.669373,-17.899429l1.500732,-8.353088l2.667938,-16.706161l1.333984,-13.637665q1.000458,-6.648361 0.83374,-15.342392l0,-16.024269q0,-8.523544 -2.334442,-16.706154"/>
   <g id="svg_27">
    <path id="svg_25" fill="#999999" d="m123.026672,170.250259l0,3.419769l-75.445297,-3.248779q-1.14064,-1.196945 -0.977707,-2.222855l-0.162933,-0.341995l-26.234756,-75.406265l1.14064,-0.34198q8.473328,-2.906799 24.931168,-3.248779l3.421921,0l1.955383,-4.958694l8.310394,0l-1.466537,4.958694l-0.162949,0.34198l21.020416,2.393829q19.553833,2.73584 29.982574,5.300674l-70.882751,-2.393845l-11.895264,1.709885l-0.977676,0.17099l25.419998,68.737686l6.843872,0.512955l2.118317,0.17099l63.061188,4.44574"/>
    <path id="svg_26" fill="#ffffff" d="m123.026672,170.250259l-63.061188,-4.44574l-2.118317,-0.17099l-6.843872,-0.512955l-25.419998,-68.737686l0.977676,-0.17099l11.895264,-1.709885l70.882751,2.393845q-10.428741,-2.564835 -29.982574,-5.300674l-21.020416,-2.393829l0.162949,-0.34198l1.466537,-4.958694l63.061188,0l0,86.349579"/>
   </g>
  </g>
  <use x="-9.996027" y="2.706185" transform="matrix(3.14445, 0, 0, 3.30243, 112.391, 41.6576)" xlink:href="#svg_29" id="svg_30"/>

  <g id="svg_40">
   <path id="svg_38" fill="#ffffff" d="m38.691788,203.811874l26.758011,-0.515549l15.437286,-30.759415l14.922791,30.243942l26.243439,3.093109l-23.842102,23.37027l14.922729,39.69516l-32.761383,-21.823761l-31.732285,17.871399l12.864426,-34.368073l-23.499023,-24.229462l0.686111,-2.577621"/>
   <path id="svg_35" fill="#940101" d="m135.480988,323.62384l5.199005,-0.777008l20.324005,-3.884003l20.796997,-4.66098l-11.658997,-145.740005l-34.976013,-1.242996l-67.430984,-2.641006l-17.488007,-0.932999l-8.192993,38.843994l16.542999,-0.310989l4.557007,-3.356003l16.71199,-28.339996l18.858002,26.075989l30.541016,8.572006l-25.305023,25.060989l14.312012,46.328003l-39.824005,-23.79599l-38.442993,18.424011l13.888992,-40.447021l-3.369003,-3.927002l-11.403992,-12.849991l-18.335999,80.702011l11.817001,5.903992l19.220993,9.010986q14.179001,5.904999 28.830994,9.322998l19.694,3.417999l21.740997,2.02002l13.391998,-0.777008m-9.924988,7.924011l-35.606995,-2.641022l-11.028015,-2.951996l-19.220993,-5.748993l-9.294998,-3.574005l-8.981003,-3.884003l-8.664993,-4.350983l-8.350006,-5.127014l-8.507996,-4.815979l31.983002,-137.971008l126.354004,6.369995l12.761993,154.751007l-18.276001,4.66098l-17.014984,3.263l-26.153015,2.02002m-83.973999,-126.318008l-0.630005,2.330994l21.584,21.906998l-11.815994,31.075012l29.145996,-16.158997l30.09201,19.731995l-13.707001,-35.890991l21.899994,-21.131012l-24.105011,-2.796005l-13.707001,-27.345993l-14.179993,27.811996l-24.576996,0.466003"/>
   <path id="svg_36" fill="#cd0101" d="m137.738464,167.091812l0.658875,2.077209l7.247803,22.849121q6.424164,23.008926 6.094696,47.136337q-0.494141,23.488281 -2.964966,46.656982l-1.647217,10.385986q-3.623901,15.978424 -9.059723,31.637268l-14.001434,0.79895l-22.731689,-2.077209l-20.590302,-3.515259q-15.319183,-3.515259 -30.144196,-9.587036l-20.096146,-9.267487l9.389191,-32.436218l11.860001,-45.059143l4.776962,5.272888l-12.848358,37.069946l34.756454,-18.534973l38.709747,23.648071l-16.636963,-43.940674l25.202515,-24.127426l-28.167542,-5.113083l-17.625275,-30.518768l-16.636963,32.436172l-5.600571,0.15979l9.553909,-38.66777l70.50119,2.716324"/>
   <path id="svg_37" fill="#e40101" d="m30.90802,303.505737l-12.888657,-6.042236l21.30928,-85.863235l13.74791,14.787552l-12.373123,44.839691l-9.79541,32.278229m28.355103,-100.650803l-18.044159,0.318008l8.936172,-39.751495l19.075241,0.954025l-9.967255,38.479462"/>
   <path id="svg_39" fill="#af0101" d="m136.584656,166.678589l38.247711,1.281586l12.749268,150.26651l-22.741913,4.805939l-22.224976,4.005005l-5.685486,0.800964q5.685486,-15.699493 9.475769,-31.71936l1.72287,-10.412933q2.58429,-23.228821 3.101166,-46.778046q0.344543,-24.190033 -6.374664,-47.258652l-7.580627,-22.908417l-0.689117,-2.082596"/>
  </g>
 </g>
</svg>